# Blender 3.5.0
# www.blender.org
mtllib steve.mtl
o body_up
v -0.250000 1.052359 -0.126151
v 0.250000 1.488165 -0.164609
v 0.250000 1.052359 -0.126151
v 0.250000 1.074335 0.122881
v 0.250000 1.510141 0.084423
v -0.250000 1.510141 0.084423
v -0.250000 1.074335 0.122881
v -0.250000 1.488165 -0.164609
vn -0.0000 -0.0879 -0.9961
vn 1.0000 -0.0000 -0.0000
vn -0.0000 0.0879 0.9961
vn -1.0000 -0.0000 -0.0000
vn -0.0000 0.9961 -0.0879
vn -0.0000 -0.9961 0.0879
vt 0.437500 0.687500
vt 0.312500 0.578100
vt 0.437500 0.687500
vt 0.437500 0.578100
vt 0.562500 0.687500
vt 0.500000 0.578100
vt 0.562500 0.750000
vt 0.500000 0.687500
vt 0.437500 0.750000
vt 0.312500 0.750000
vt 0.625000 0.687500
vt 0.250000 0.687500
vt 0.625000 0.578100
vt 0.250000 0.578100
vt 0.437500 0.750000
vt 0.312500 0.687500
s 1
usemtl m_0
f 1/2/1 2/3/1 3/4/1
f 4/6/2 2/3/2 5/8/2
f 4/6/3 6/11/3 7/13/3
f 7/14/4 8/16/4 1/2/4
f 5/9/5 8/16/5 6/10/5
f 3/5/6 7/15/6 1/1/6
f 1/2/1 8/16/1 2/3/1
f 4/6/2 3/4/2 2/3/2
f 4/6/3 5/8/3 6/11/3
f 7/14/4 6/12/4 8/16/4
f 5/9/5 2/3/5 8/16/5
f 3/5/6 4/7/6 7/15/6
o right_arm
v 0.261453 1.060785 -0.079628
v 0.472372 1.510205 -0.165891
v 0.510502 1.082183 -0.083735
v 0.510502 1.129309 0.161783
v 0.472372 1.557331 0.079628
v 0.223323 1.535932 0.083735
v 0.261453 1.107910 0.165890
v 0.223323 1.488807 -0.161783
vn -0.0000 -0.1885 -0.9821
vn 0.9962 0.0856 -0.0164
vn -0.0000 0.1885 0.9821
vn -0.9962 -0.0856 0.0164
vn -0.0872 0.9783 -0.1878
vn 0.0872 -0.9783 0.1878
vt 0.750000 0.687500
vt 0.687500 0.578100
vt 0.750000 0.687500
vt 0.750000 0.578100
vt 0.812500 0.687500
vt 0.812500 0.578100
vt 0.812500 0.750000
vt 0.812500 0.687500
vt 0.750000 0.750000
vt 0.687500 0.750000
vt 0.875000 0.687500
vt 0.625000 0.687500
vt 0.875000 0.578100
vt 0.625000 0.578100
vt 0.750000 0.750000
vt 0.687500 0.687500
s 1
usemtl m_0_Steave.png
f 9/18/7 10/19/7 11/20/7
f 12/22/8 10/19/8 13/24/8
f 12/22/9 14/27/9 15/29/9
f 15/30/10 16/32/10 9/18/10
f 13/25/11 16/32/11 14/26/11
f 11/21/12 15/31/12 9/17/12
f 9/18/7 16/32/7 10/19/7
f 12/22/8 11/20/8 10/19/8
f 12/22/9 13/24/9 14/27/9
f 15/30/10 14/28/10 16/32/10
f 13/25/11 10/19/11 16/32/11
f 11/21/12 12/23/12 15/31/12
o left_arm
v -0.517065 1.082183 -0.083735
v -0.229886 1.488807 -0.161783
v -0.268016 1.060785 -0.079628
v -0.268016 1.107910 0.165890
v -0.229886 1.535932 0.083735
v -0.478934 1.557331 0.079628
v -0.517065 1.129309 0.161783
v -0.478934 1.510205 -0.165891
vn -0.0000 -0.1885 -0.9821
vn 0.9962 -0.0856 0.0164
vn -0.0000 0.1885 0.9821
vn -0.9962 0.0856 -0.0164
vn 0.0872 0.9783 -0.1878
vn -0.0872 -0.9783 0.1878
vt 0.625000 0.187500
vt 0.562500 0.078100
vt 0.625000 0.187500
vt 0.625000 0.078100
vt 0.687500 0.187500
vt 0.687500 0.078100
vt 0.687500 0.250000
vt 0.687500 0.187500
vt 0.625000 0.250000
vt 0.562500 0.250000
vt 0.750000 0.187500
vt 0.500000 0.187500
vt 0.750000 0.078100
vt 0.500000 0.078100
vt 0.625000 0.250000
vt 0.562500 0.187500
s 1
usemtl m_0_Steave.png
f 17/34/13 18/35/13 19/36/13
f 20/38/14 18/35/14 21/40/14
f 20/38/15 22/43/15 23/45/15
f 23/46/16 24/48/16 17/34/16
f 21/41/17 24/48/17 22/42/17
f 19/37/18 23/47/18 17/33/18
f 17/34/13 24/48/13 18/35/13
f 20/38/14 19/36/14 18/35/14
f 20/38/15 21/40/15 22/43/15
f 23/46/16 22/44/16 24/48/16
f 21/41/17 18/35/17 24/48/17
f 19/37/18 20/39/18 23/47/18
o left_arm_down
v -0.541029 0.848411 -0.122692
v -0.264745 1.135985 -0.089165
v -0.291981 0.826768 -0.125216
v -0.291981 0.797817 0.123102
v -0.264745 1.107034 0.159153
v -0.513793 1.128676 0.161676
v -0.541030 0.819460 0.125626
v -0.513793 1.157627 -0.086642
vn -0.0000 0.1158 -0.9933
vn 0.9962 -0.0866 -0.0101
vn -0.0000 -0.1158 0.9933
vn -0.9962 0.0866 0.0101
vn 0.0872 0.9895 0.1154
vn -0.0872 -0.9895 -0.1154
vt 0.625000 0.187500
vt 0.562500 0.000000
vt 0.625000 0.078100
vt 0.625000 0.187500
vt 0.625000 0.000000
vt 0.687500 0.187500
vt 0.687500 0.000000
vt 0.687500 0.250000
vt 0.687500 0.078100
vt 0.625000 0.250000
vt 0.562500 0.250000
vt 0.750000 0.078100
vt 0.500000 0.078100
vt 0.750000 0.000000
vt 0.500000 0.000000
vt 0.625000 0.250000
vt 0.562500 0.078100
vt 0.562500 0.187500
s 1
usemtl m_0_Steave.png
f 25/50/19 26/51/19 27/53/19
f 28/55/20 26/51/20 29/57/20
f 28/55/21 30/60/21 31/62/21
f 31/63/22 32/65/22 25/50/22
f 29/58/23 32/66/23 30/59/23
f 27/54/24 31/64/24 25/49/24
f 25/50/19 32/65/19 26/51/19
f 28/55/20 27/53/20 26/51/20
f 28/55/21 29/57/21 30/60/21
f 31/63/22 30/61/22 32/65/22
f 29/58/23 26/52/23 32/66/23
f 27/54/24 28/56/24 31/64/24
o head
v -0.190704 1.500000 -0.297711
v 0.297711 2.000000 -0.190704
v 0.297711 1.500000 -0.190704
v 0.190704 1.500000 0.297711
v 0.190704 2.000000 0.297711
v -0.297711 2.000000 0.190704
v -0.297711 1.500000 0.190704
v -0.190704 2.000000 -0.297711
vn 0.2140 -0.0000 -0.9768
vn 0.9768 -0.0000 0.2140
vn -0.2140 -0.0000 0.9768
vn -0.9768 -0.0000 -0.2140
vn -0.0000 1.0000 -0.0000
vn -0.0000 -1.0000 -0.0000
vt 0.125000 0.750000
vt 0.250000 0.875000
vt 0.250000 0.750000
vt 0.125000 0.875000
vt 0.250000 0.875000
vt 0.125000 0.750000
vt 0.250000 0.750000
vt 0.375000 0.875000
vt 0.375000 0.750000
vt 0.375000 1.000000
vt 0.375000 0.875000
vt 0.250000 1.000000
vt 0.125000 1.000000
vt 0.500000 0.875000
vt 0.000000 0.875000
vt 0.500000 0.750000
vt 0.000000 0.750000
vt 0.250000 1.000000
vt 0.250000 0.875000
vt 0.125000 0.875000
s 1
usemtl m_0_Steave.png
f 33/69/25 34/70/25 35/72/25
f 36/75/26 34/71/26 37/77/26
f 36/75/27 38/80/27 39/82/27
f 39/83/28 40/86/28 33/67/28
f 37/78/29 40/86/29 38/79/29
f 35/74/30 39/84/30 33/68/30
f 33/69/25 40/85/25 34/70/25
f 36/75/26 35/73/26 34/71/26
f 36/75/27 37/77/27 38/80/27
f 39/83/28 38/81/28 40/86/28
f 37/78/29 34/71/29 40/86/29
f 35/74/30 36/76/30 39/84/30
o right_leg_down
v 0.059421 0.008075 -0.101111
v 0.275786 0.400469 -0.149471
v 0.308469 0.029701 -0.103776
v 0.308469 0.060280 0.144347
v 0.275786 0.431048 0.098652
v 0.026737 0.409423 0.101317
v 0.059421 0.038655 0.147012
v 0.026737 0.378843 -0.146806
vn -0.0000 -0.1223 -0.9925
vn 0.9962 0.0865 -0.0107
vn -0.0000 0.1223 0.9925
vn -0.9962 -0.0865 0.0107
vn -0.0872 0.9887 -0.1219
vn 0.0872 -0.9887 0.1219
vt 0.125000 0.687500
vt 0.062500 0.500000
vt 0.125000 0.593800
vt 0.125000 0.687500
vt 0.125000 0.500000
vt 0.187500 0.687500
vt 0.187500 0.500000
vt 0.187500 0.750000
vt 0.187500 0.593800
vt 0.125000 0.750000
vt 0.062500 0.750000
vt 0.250000 0.593800
vt 0.000000 0.593800
vt 0.250000 0.500000
vt 0.000000 0.500000
vt 0.125000 0.750000
vt 0.062500 0.593800
vt 0.062500 0.687500
s 1
usemtl m_0_Steave.png
f 41/88/31 42/89/31 43/91/31
f 44/93/32 42/89/32 45/95/32
f 44/93/33 46/98/33 47/100/33
f 47/101/34 48/103/34 41/88/34
f 45/96/35 48/104/35 46/97/35
f 43/92/36 47/102/36 41/87/36
f 41/88/31 48/103/31 42/89/31
f 44/93/32 43/91/32 42/89/32
f 44/93/33 45/95/33 46/98/33
f 47/101/34 46/99/34 48/103/34
f 45/96/35 42/90/35 48/104/35
f 43/92/36 44/94/36 47/102/36
o body_down
v -0.250000 0.750000 -0.125000
v 0.250000 1.062500 -0.125000
v 0.250000 0.750000 -0.125000
v 0.250000 0.750000 0.125000
v 0.250000 1.079254 0.121836
v -0.250000 1.079254 0.121836
v -0.250000 0.750000 0.125000
v -0.250000 1.062500 -0.125000
vn -0.0000 -0.0000 -1.0000
vn 1.0000 -0.0000 -0.0000
vn -0.0000 0.0096 1.0000
vn -1.0000 -0.0000 -0.0000
vn -0.0000 0.9977 -0.0677
vn -0.0000 -1.0000 -0.0000
vt 0.437500 0.687500
vt 0.312500 0.500000
vt 0.437500 0.578100
vt 0.562500 0.687500
vt 0.437500 0.500000
vt 0.562500 0.687500
vt 0.500000 0.500000
vt 0.562500 0.750000
vt 0.500000 0.578100
vt 0.562500 0.750000
vt 0.437500 0.750000
vt 0.625000 0.578100
vt 0.250000 0.578100
vt 0.625000 0.500000
vt 0.250000 0.500000
vt 0.437500 0.750000
vt 0.312500 0.578100
vt 0.437500 0.687500
s 1
usemtl m_0_Steave.png
f 49/106/37 50/107/37 51/109/37
f 52/111/38 50/107/38 53/113/38
f 52/111/39 54/116/39 55/118/39
f 55/119/40 56/121/40 49/106/40
f 53/114/41 56/122/41 54/115/41
f 51/110/42 55/120/42 49/105/42
f 49/106/37 56/121/37 50/107/37
f 52/111/38 51/109/38 50/107/38
f 52/111/39 53/113/39 54/116/39
f 55/119/40 54/117/40 56/121/40
f 53/114/41 50/108/41 56/122/41
f 51/110/42 52/112/42 55/120/42
o left_leg
v -0.274683 0.399643 -0.149389
v 0.007049 0.750442 -0.123082
v -0.025635 0.377915 -0.151018
v -0.025635 0.359220 0.098282
v 0.007049 0.749357 0.126218
v -0.242000 0.753475 0.127847
v -0.274683 0.380948 0.099911
v -0.242000 0.772170 -0.121453
vn -0.0000 0.0748 -0.9972
vn 0.9963 -0.0856 -0.0042
vn 0.9964 -0.0847 -0.0026
vn 0.9965 -0.0835 -0.0004
vn 0.0020 -0.0737 0.9973
vn 0.0034 -0.0729 0.9973
vn -0.0000 -0.0748 0.9972
vn -0.9962 0.0869 0.0065
vn 0.0520 0.9979 0.0396
vn 0.0170 0.9971 0.0748
vn -0.0872 -0.9934 -0.0745
vn 0.9962 -0.0869 -0.0065
vn 0.0053 -0.0719 0.9974
vn 0.0869 0.9962 0.0043
vt 0.375000 0.187500
vt 0.312500 0.093800
vt 0.375000 0.187500
vt 0.375000 0.093800
vt 0.437500 0.187500
vt 0.437500 0.093800
vt 0.437500 0.250000
vt 0.437500 0.187500
vt 0.375000 0.250000
vt 0.312500 0.250000
vt 0.500000 0.187500
vt 0.250000 0.187500
vt 0.500000 0.093800
vt 0.250000 0.093800
vt 0.375000 0.250000
vt 0.312500 0.187500
s 1
usemtl m_0_Steave.png
f 57/124/43 58/125/43 59/126/43
f 60/128/44 58/125/45 61/130/46
f 60/128/47 62/133/48 63/135/49
f 63/136/50 64/138/50 57/124/50
f 61/131/51 64/138/51 62/132/52
f 59/127/53 63/137/53 57/123/53
f 57/124/43 64/138/43 58/125/43
f 60/128/44 59/126/54 58/125/45
f 60/128/47 61/130/55 62/133/48
f 63/136/50 62/134/50 64/138/50
f 61/131/51 58/125/56 64/138/51
f 59/127/53 60/129/53 63/137/53
o left_leg_down
v -0.307367 0.029701 -0.103776
v -0.025635 0.378843 -0.146806
v -0.058318 0.008075 -0.101111
v -0.058318 0.038655 0.147012
v -0.025635 0.409423 0.101317
v -0.274683 0.431048 0.098652
v -0.307367 0.060280 0.144347
v -0.274683 0.400469 -0.149471
vn -0.0000 -0.1223 -0.9925
vn 0.9962 -0.0865 0.0107
vn -0.0000 0.1223 0.9925
vn -0.9962 0.0865 -0.0107
vn 0.0872 0.9887 -0.1219
vn -0.0872 -0.9887 0.1219
vt 0.375000 0.187500
vt 0.312500 0.000000
vt 0.375000 0.093800
vt 0.375000 0.187500
vt 0.375000 0.000000
vt 0.437500 0.187500
vt 0.437500 0.000000
vt 0.437500 0.250000
vt 0.437500 0.093800
vt 0.375000 0.250000
vt 0.312500 0.250000
vt 0.500000 0.093800
vt 0.250000 0.093800
vt 0.500000 0.000000
vt 0.250000 0.000000
vt 0.375000 0.250000
vt 0.312500 0.093800
vt 0.312500 0.187500
s 1
usemtl m_0_Steave.png
f 65/140/57 66/141/57 67/143/57
f 68/145/58 66/141/58 69/147/58
f 68/145/59 70/150/59 71/152/59
f 71/153/60 72/155/60 65/140/60
f 69/148/61 72/156/61 70/149/61
f 67/144/62 71/154/62 65/139/62
f 65/140/57 72/155/57 66/141/57
f 68/145/58 67/143/58 66/141/58
f 68/145/59 69/147/59 70/150/59
f 71/153/60 70/151/60 72/155/60
f 69/148/61 66/142/61 72/156/61
f 67/144/62 68/146/62 71/154/62
o right_arm_down
v 0.288646 0.826768 -0.125216
v 0.510458 1.157627 -0.086642
v 0.537695 0.848411 -0.122692
v 0.537695 0.819460 0.125626
v 0.510459 1.128676 0.161676
v 0.261410 1.107034 0.159153
v 0.288646 0.797817 0.123102
v 0.261410 1.135985 -0.089165
vn -0.0000 0.1158 -0.9933
vn 0.9962 0.0866 0.0101
vn -0.0000 -0.1158 0.9933
vn -0.9962 -0.0866 -0.0101
vn -0.0872 0.9895 0.1154
vn 0.0872 -0.9895 -0.1154
vt 0.750000 0.687500
vt 0.687500 0.500000
vt 0.750000 0.578100
vt 0.750000 0.687500
vt 0.750000 0.500000
vt 0.812500 0.687500
vt 0.812500 0.500000
vt 0.812500 0.750000
vt 0.812500 0.578100
vt 0.750000 0.750000
vt 0.687500 0.750000
vt 0.875000 0.578100
vt 0.625000 0.578100
vt 0.875000 0.500000
vt 0.625000 0.500000
vt 0.750000 0.750000
vt 0.687500 0.578100
vt 0.687500 0.687500
s 1
usemtl m_0_Steave.png
f 73/158/63 74/159/63 75/161/63
f 76/163/64 74/159/64 77/165/64
f 76/163/65 78/168/65 79/170/65
f 79/171/66 80/173/66 73/158/66
f 77/166/67 80/174/67 78/167/67
f 75/162/68 79/172/68 73/157/68
f 73/158/63 80/173/63 74/159/63
f 76/163/64 75/161/64 74/159/64
f 76/163/65 77/165/65 78/168/65
f 79/171/66 78/169/66 80/173/66
f 77/166/67 74/160/67 80/174/67
f 75/162/68 76/164/68 79/172/68
o right_leg
v 0.026737 0.377915 -0.151018
v 0.243102 0.772170 -0.121453
v 0.275786 0.399643 -0.149389
v 0.275786 0.380948 0.099911
v 0.243102 0.753475 0.127847
v -0.005946 0.748952 0.126218
v 0.026737 0.359220 0.098282
v -0.005946 0.750442 -0.123082
vn -0.0000 0.0748 -0.9972
vn 0.9962 0.0869 0.0065
vn -0.0020 -0.0729 0.9973
vn -0.0033 -0.0738 0.9973
vn -0.0003 -0.0715 0.9974
vn -0.9963 -0.0857 -0.0043
vn -0.9964 -0.0847 -0.0027
vn -0.9962 -0.0869 -0.0065
vn -0.0528 0.9978 0.0403
vn -0.0528 0.9978 0.0404
vn -0.0182 0.9998 0.0060
vn 0.0872 -0.9934 -0.0745
vn -0.0052 -0.0752 0.9972
vn -0.9965 -0.0835 -0.0005
vn -0.0872 0.9934 0.0745
vt 0.125000 0.687500
vt 0.062500 0.593800
vt 0.125000 0.687500
vt 0.125000 0.593800
vt 0.187500 0.687500
vt 0.187500 0.593800
vt 0.187500 0.750000
vt 0.187500 0.687500
vt 0.125000 0.750000
vt 0.062500 0.750000
vt 0.250000 0.687500
vt 0.000000 0.687500
vt 0.250000 0.593800
vt 0.000000 0.593800
vt 0.125000 0.750000
vt 0.062500 0.687500
s 1
usemtl m_0_Steave.png
f 81/176/69 82/177/69 83/178/69
f 84/180/70 82/177/70 85/182/70
f 84/180/71 86/185/72 87/187/73
f 87/188/74 88/190/75 81/176/76
f 85/183/77 88/190/78 86/184/79
f 83/179/80 87/189/80 81/175/80
f 81/176/69 88/190/69 82/177/69
f 84/180/70 83/178/70 82/177/70
f 84/180/71 85/182/81 86/185/72
f 87/188/74 86/186/82 88/190/75
f 85/183/77 82/177/83 88/190/78
f 83/179/80 84/181/80 87/189/80
